<?xml version="1.0" encoding="UTF-8" standalone="no"?>
<!--version="1.0" encoding="UTF-8"-->

<svg
   version="1.1"
   width="1024"
   height="1039.9899"
   id="svg47"
   sodipodi:docname="async-kernel-logo.svg"
   inkscape:version="1.3 (0e150ed6c4, 2023-07-21)"
   xml:space="preserve"
   xmlns:inkscape="http://www.inkscape.org/namespaces/inkscape"
   xmlns:sodipodi="http://sodipodi.sourceforge.net/DTD/sodipodi-0.dtd"
   xmlns="http://www.w3.org/2000/svg"
   xmlns:svg="http://www.w3.org/2000/svg"><defs
     id="defs47" /><sodipodi:namedview
     id="namedview47"
     pagecolor="#ffffff"
     bordercolor="#666666"
     borderopacity="1.0"
     inkscape:showpageshadow="2"
     inkscape:pageopacity="0.0"
     inkscape:pagecheckerboard="0"
     inkscape:deskcolor="#d1d1d1"
     showgrid="false"
     inkscape:zoom="0.19848633"
     inkscape:cx="763.27675"
     inkscape:cy="178.85363"
     inkscape:window-width="1920"
     inkscape:window-height="1009"
     inkscape:window-x="-8"
     inkscape:window-y="-8"
     inkscape:window-maximized="1"
     inkscape:current-layer="svg47" /><path
     d="m 284.97532,844.53234 c 30.86189,62.73937 147.57863,116.30607 252.98297,115.45345 93.80477,2.98682 175.2207,-36.50632 246.96908,-95.10382 37.57819,-32.16724 85.71071,-49.48362 130.03524,-70.37587 -31.11497,59.25146 -73.31874,110.26132 -125.62897,151.6444 -260.01146,205.3768 -518.46843,14.46345 -559.28151,-18.38135 -23.93886,-14.71158 -66.47622,-6.08282 -103.6088,-26.93248 -9.998,-5.55868 -15.37992,-9.57614 -20.88224,-14.06734 l 1.39793,-2.79586 c 31.65668,8.27765 53.59292,-1.39653 68.49845,-1.39653 v -2.79585 C 131.79774,875.56666 82.521073,863.73193 55.3657,826.81221 -0.1423505,734.43697 207.82398,682.92345 284.97532,844.53234 Z"
     fill="#faaf15"
     id="path2"
     sodipodi:nodetypes="ccccccccccccc"
     style="stroke-width:1.39793" /><circle
     style="fill:#000000;fill-opacity:1;stroke:#000000;stroke-width:2.07168;stroke-dashoffset:9.99999;stroke-opacity:1"
     id="path49"
     cx="512"
     cy="519.99493"
     r="285.82294" /><g
     id="g48"
     transform="translate(178.19912,190.77303)"><g
       id="g49"
       transform="matrix(5.729551,0,0,5.729551,-42.883593,-23.465133)"><path
         d="m 109.766,7.281 a 7.691,7.691 0 0 1 -1.09,4.282 7.583,7.583 0 0 1 -3.262,2.949 7.49,7.49 0 0 1 -4.34,0.62 A 7.525,7.525 0 0 1 97.121,13.219 7.642,7.642 0 0 1 95.137,5 a 7.606,7.606 0 0 1 2.629,-3.531 7.509,7.509 0 0 1 4.136,-1.461 7.51,7.51 0 0 1 5.422,1.996 7.627,7.627 0 0 1 2.438,5.273 z m 0,0"
         fill="#767677"
         id="path1" /><path
         d="M 65.758,96.79 C 45.66,96.79 28.109,89.426 18.992,78.523 a 49.95,49.95 0 0 0 18.102,24.254 49.251,49.251 0 0 0 28.676,9.215 49.279,49.279 0 0 0 28.675,-9.215 49.917,49.917 0 0 0 18.094,-24.254 C 103.406,89.426 85.855,96.79 65.758,96.79 Z m 0,0 M 65.75,25.883 c 20.098,0 37.652,7.367 46.766,18.265 A 49.95,49.95 0 0 0 94.414,19.895 49.27,49.27 0 0 0 65.742,10.675 49.27,49.27 0 0 0 37.07,19.895 49.909,49.909 0 0 0 18.97,44.148 C 28.102,33.27 45.652,25.883 65.75,25.883 Z m 0,0"
         fill="#f37726"
         id="path2-4" /><path
         d="m 38.164,117.984 a 9.671,9.671 0 0 1 -1.371,5.399 9.5,9.5 0 0 1 -9.59,4.504 9.405,9.405 0 0 1 -4.98,-2.418 9.671,9.671 0 0 1 -2.809,-4.797 9.73,9.73 0 0 1 0.313,-5.567 9.624,9.624 0 0 1 3.328,-4.453 9.466,9.466 0 0 1 12.043,0.688 9.63,9.63 0 0 1 3.066,6.648 z m 0,0"
         fill="#989798"
         id="path3-2" /><path
         d="m 21.285,23.418 a 5.53,5.53 0 0 1 -3.14,-0.816 5.627,5.627 0 0 1 -2.618,-5.672 5.612,5.612 0 0 1 1.407,-2.95 5.593,5.593 0 0 1 2.789,-1.664 5.46,5.46 0 0 1 3.238,0.184 5.539,5.539 0 0 1 2.586,1.969 5.66,5.66 0 0 1 -0.399,7.129 5.557,5.557 0 0 1 -3.867,1.82 z m 0,0"
         fill="#6f7070"
         id="path4" /></g></g><path
     d="m 891.19687,102.53155 c 9.34675,7.69867 52.2838,45.75957 57.59881,99.31298 1.11744,16.68847 -1.1649,24.75938 -10.06927,34.88668 15.40936,4.74082 26.76352,19.02736 37.04509,30.84108 13.94293,16.01746 27.4078,20.19307 48.2285,22.27738 l -1.3979,4.19378 c -19.1028,7.59625 -38.23135,-3.96485 -46.13164,-9.7855 2.9158,15.14721 2.85673,31.26965 -1.39933,46.13302 -6.72543,-5.50225 -7.32933,-13.84508 -8.30089,-22.01737 -2.50549,-32.38922 -35.65894,-63.08203 -39.22865,-64.65415 -43.56643,12.09131 -84.72086,-0.66561 -123.04,-22.67718 C 775.88321,202.9391 753.13893,180.90776 736.43929,151.44504 710.65871,106.12702 649.50915,84.87572 601.6497,71.469594 529.96449,51.97747 466.0771,57.362967 421.79093,66.762771 309.30242,91.404766 241.65215,160.82322 240.52444,161.98681 c -11.31902,11.5385 -24.91386,17.07429 -39.4565,23.67531 -37.0398,17.09817 -65.50504,33.53144 -94.11129,52.46842 l -1.39792,-2.79586 C 108.04142,229.451 139.53487,157.81096 231.92999,80.455473 467.68157,-109.18977 882.63505,94.906382 891.19687,102.53155 Z"
     fill="#236da8"
     id="path3"
     sodipodi:nodetypes="cccccccccccccccccccc"
     style="stroke-width:1.39793" /><path
     d="m 183.84503,235.33643 c -42.37991,64.74716 -89.653698,129.69873 -64.90158,210.07637 28.19634,51.06393 89.53937,72.16848 144.58346,87.68222 8.46306,41.51566 8.46306,41.51566 8.38757,53.12125 C 263.081,584.95938 141.87713,566.85862 65.021187,509.33025 33.381931,485.73709 9.4764873,456.71132 2.114441,421.26081 -1.539742,391.0488 6.7863153,364.61538 24.656025,340.33897 57.288427,299.0762 106.00354,264.98998 170.9142,237.7828 c 4.29349,-1.74408 8.38873,-4.57353 12.92944,-2.44637 z"
     fill="#236da8"
     id="path5"
     sodipodi:nodetypes="cccccccccc"
     style="stroke-width:1.39793" /><path
     d="m 805.92285,296.84524 c 330.84915,37.23915 215.11605,339.0508 -79.68188,352.27778 8.09815,-16.48831 13.26302,-51.97364 25.1655,-61.49204 79.54619,-22.44986 187.47338,-67.07628 197.1036,-145.39986 8.36525,-93.09466 -121.07788,-137.30064 -142.58722,-143.98795 z"
     fill="#f9af15"
     id="path6"
     sodipodi:nodetypes="cccccc"
     style="stroke-width:1.39793" /><path
     d="m 1004.4286,540.08466 c 12.0417,10.22165 18.1257,31.50719 19.3419,46.29028 3.393,118.7018 -139.07332,191.88253 -191.45617,214.50431 -14.44898,6.2096 -14.44898,6.2096 -19.40324,6.2096 10.91222,-35.18584 35.50736,-65.08332 57.69667,-93.85267 57.75017,-75.02576 38.90276,-90.13153 57.76377,-104.46714 29.94456,-17.55181 56.63739,-39.49723 76.05707,-68.68438 z"
     fill="#236da8"
     id="path9"
     sodipodi:nodetypes="ccccccc"
     style="stroke-width:1.39793" /><path
     d="m 16.093718,493.95305 c 50.614573,47.87982 58.244887,30.62816 56.965553,59.32525 0,84.94424 123.795609,134.23436 164.399089,148.11463 8.31347,2.85178 16.49974,6.0041 24.67062,9.2403 v 1.39793 C 162.03476,715.49008 83.279169,707.00389 19.206903,617.61513 2.25004,590.18779 -4.321618,556.60956 2.9000763,524.97166 5.651198,513.80082 10.458671,503.94543 16.093718,493.95305 Z"
     fill="#f9af15"
     id="path11"
     sodipodi:nodetypes="cccccccc"
     style="stroke-width:1.39793" /><path
     d="m 228.57872,295.44732 c -67.74249,25.2277 -97.66734,54.71723 -113.23214,76.88462 -13.86976,-51.50945 65.98132,-80.76942 113.23214,-76.88462 z"
     fill="#f5b416"
     id="path15"
     sodipodi:nodetypes="ccc"
     style="stroke-width:1.39793" /><ellipse
     style="fill:#f9f9f9;fill-opacity:1;stroke:#f2f2f2;stroke-width:2.64175;stroke-dashoffset:9.99999"
     id="path47"
     cx="149.43159"
     cy="810.45691"
     rx="21.787989"
     ry="19.60919" /><ellipse
     style="fill:#f9f9f9;fill-opacity:1;stroke:#f2f2f2;stroke-width:2.64175;stroke-dashoffset:9.99999"
     id="path47-0"
     cx="883.33807"
     cy="160.89067"
     rx="21.787989"
     ry="19.60919" /></svg>
